<mxfile host="Electron" agent="Mozilla/5.0 (Macintosh; Intel Mac OS X 10_15_7) AppleWebKit/537.36 (KHTML, like Gecko) draw.io/24.7.8 Chrome/128.0.6613.36 Electron/32.0.1 Safari/537.36" version="24.7.8">
  <diagram name="第 1 页" id="5FrjMeNQ7PzPpJv68QO-">
    <mxGraphModel dx="857" dy="626" grid="1" gridSize="10" guides="1" tooltips="1" connect="1" arrows="1" fold="1" page="1" pageScale="1" pageWidth="827" pageHeight="1169" math="0" shadow="0">
      <root>
        <mxCell id="0" />
        <mxCell id="1" parent="0" />
        <mxCell id="4WRyh4Nc3NUzpBGTfUNt-1" value="&lt;font face=&quot;Monaco&quot;&gt;增量扩容&lt;/font&gt;" style="text;html=1;align=center;verticalAlign=middle;resizable=0;points=[];autosize=1;strokeColor=none;fillColor=none;fontSize=12;fontFamily=Helvetica;fontColor=default;" vertex="1" parent="1">
          <mxGeometry x="190" y="200" width="70" height="30" as="geometry" />
        </mxCell>
        <mxCell id="4WRyh4Nc3NUzpBGTfUNt-2" value="&lt;font face=&quot;Monaco&quot;&gt;等量扩容&lt;/font&gt;" style="text;html=1;align=center;verticalAlign=middle;resizable=0;points=[];autosize=1;strokeColor=none;fillColor=none;fontSize=12;fontFamily=Helvetica;fontColor=default;" vertex="1" parent="1">
          <mxGeometry x="180" y="1070" width="70" height="30" as="geometry" />
        </mxCell>
        <mxCell id="4WRyh4Nc3NUzpBGTfUNt-3" value="&lt;font face=&quot;monaco&quot;&gt;count = 8&lt;/font&gt;" style="rounded=1;whiteSpace=wrap;html=1;strokeWidth=2;fillColor=#dae8fc;strokeColor=#6c8ebf;comic=1;" vertex="1" parent="1">
          <mxGeometry x="190" y="360" width="120" height="40" as="geometry" />
        </mxCell>
        <mxCell id="4WRyh4Nc3NUzpBGTfUNt-4" value="&lt;font face=&quot;monaco&quot;&gt;...&lt;/font&gt;" style="rounded=1;whiteSpace=wrap;html=1;strokeWidth=2;fillColor=#dae8fc;strokeColor=#6c8ebf;comic=1;" vertex="1" parent="1">
          <mxGeometry x="190" y="400" width="120" height="40" as="geometry" />
        </mxCell>
        <mxCell id="4WRyh4Nc3NUzpBGTfUNt-5" value="&lt;font face=&quot;monaco&quot;&gt;B = 1&lt;/font&gt;" style="rounded=1;whiteSpace=wrap;html=1;strokeWidth=2;fillColor=#dae8fc;strokeColor=#6c8ebf;comic=1;" vertex="1" parent="1">
          <mxGeometry x="190" y="440" width="120" height="40" as="geometry" />
        </mxCell>
        <mxCell id="4WRyh4Nc3NUzpBGTfUNt-37" style="edgeStyle=orthogonalEdgeStyle;rounded=0;orthogonalLoop=1;jettySize=auto;html=1;entryX=0;entryY=0.25;entryDx=0;entryDy=0;fillColor=#d5e8d4;strokeColor=#82b366;strokeWidth=3;" edge="1" parent="1" source="4WRyh4Nc3NUzpBGTfUNt-6" target="4WRyh4Nc3NUzpBGTfUNt-14">
          <mxGeometry relative="1" as="geometry">
            <Array as="points">
              <mxPoint x="370" y="500" />
              <mxPoint x="370" y="561" />
            </Array>
          </mxGeometry>
        </mxCell>
        <mxCell id="4WRyh4Nc3NUzpBGTfUNt-6" value="&lt;font face=&quot;monaco&quot;&gt;buckets&lt;/font&gt;" style="rounded=1;whiteSpace=wrap;html=1;strokeWidth=2;fillColor=#f8cecc;strokeColor=#b85450;comic=1;" vertex="1" parent="1">
          <mxGeometry x="190" y="480" width="120" height="40" as="geometry" />
        </mxCell>
        <mxCell id="4WRyh4Nc3NUzpBGTfUNt-28" style="edgeStyle=orthogonalEdgeStyle;rounded=0;orthogonalLoop=1;jettySize=auto;html=1;entryX=0;entryY=0.25;entryDx=0;entryDy=0;strokeWidth=2;strokeColor=#666666;dashed=1;" edge="1" parent="1" source="4WRyh4Nc3NUzpBGTfUNt-7" target="4WRyh4Nc3NUzpBGTfUNt-10">
          <mxGeometry relative="1" as="geometry" />
        </mxCell>
        <mxCell id="4WRyh4Nc3NUzpBGTfUNt-7" value="&lt;font face=&quot;monaco&quot;&gt;oldbuckets&lt;/font&gt;" style="rounded=1;whiteSpace=wrap;html=1;strokeWidth=2;fillColor=#f8cecc;strokeColor=#b85450;comic=1;" vertex="1" parent="1">
          <mxGeometry x="190" y="520" width="120" height="40" as="geometry" />
        </mxCell>
        <mxCell id="4WRyh4Nc3NUzpBGTfUNt-8" value="&lt;font face=&quot;monaco&quot;&gt;...&lt;/font&gt;" style="rounded=1;whiteSpace=wrap;html=1;strokeWidth=2;fillColor=#dae8fc;strokeColor=#6c8ebf;comic=1;" vertex="1" parent="1">
          <mxGeometry x="190" y="561" width="120" height="40" as="geometry" />
        </mxCell>
        <mxCell id="4WRyh4Nc3NUzpBGTfUNt-9" value="&lt;font face=&quot;Monaco&quot;&gt;hmap&lt;/font&gt;" style="text;html=1;align=center;verticalAlign=middle;resizable=0;points=[];autosize=1;strokeColor=none;fillColor=none;fontSize=12;fontFamily=Helvetica;fontColor=default;" vertex="1" parent="1">
          <mxGeometry x="220" y="320" width="50" height="30" as="geometry" />
        </mxCell>
        <mxCell id="4WRyh4Nc3NUzpBGTfUNt-10" value="&lt;font face=&quot;monaco&quot;&gt;bucket[0]&lt;/font&gt;" style="rounded=1;whiteSpace=wrap;html=1;strokeWidth=2;fillColor=#f8cecc;strokeColor=#b85450;comic=1;" vertex="1" parent="1">
          <mxGeometry x="400" y="360" width="120" height="40" as="geometry" />
        </mxCell>
        <mxCell id="4WRyh4Nc3NUzpBGTfUNt-11" value="&lt;font face=&quot;Monaco&quot;&gt;[]bmap&lt;/font&gt;" style="text;html=1;align=center;verticalAlign=middle;resizable=0;points=[];autosize=1;strokeColor=none;fillColor=none;fontSize=12;fontFamily=Helvetica;fontColor=default;" vertex="1" parent="1">
          <mxGeometry x="425" y="320" width="70" height="30" as="geometry" />
        </mxCell>
        <mxCell id="4WRyh4Nc3NUzpBGTfUNt-12" value="&lt;font face=&quot;Monaco&quot;&gt;size = 1&lt;/font&gt;" style="text;html=1;align=center;verticalAlign=middle;resizable=0;points=[];autosize=1;strokeColor=none;fillColor=none;fontSize=12;fontFamily=Helvetica;fontColor=default;" vertex="1" parent="1">
          <mxGeometry x="450" y="400" width="80" height="30" as="geometry" />
        </mxCell>
        <mxCell id="4WRyh4Nc3NUzpBGTfUNt-13" value="" style="shape=arrow;endArrow=classic;html=1;rounded=0;fillColor=#dae8fc;strokeColor=#6c8ebf;endWidth=27.895362663495842;startSize=3;" edge="1" parent="1">
          <mxGeometry width="50" height="50" relative="1" as="geometry">
            <mxPoint x="440" y="430" as="sourcePoint" />
            <mxPoint x="440" y="530" as="targetPoint" />
          </mxGeometry>
        </mxCell>
        <mxCell id="4WRyh4Nc3NUzpBGTfUNt-14" value="&lt;font face=&quot;monaco&quot;&gt;bucket[0]&lt;/font&gt;" style="rounded=1;whiteSpace=wrap;html=1;strokeWidth=2;fillColor=#f8cecc;strokeColor=#b85450;comic=1;" vertex="1" parent="1">
          <mxGeometry x="400" y="551" width="120" height="40" as="geometry" />
        </mxCell>
        <mxCell id="4WRyh4Nc3NUzpBGTfUNt-48" style="edgeStyle=orthogonalEdgeStyle;rounded=0;orthogonalLoop=1;jettySize=auto;html=1;entryX=0;entryY=0.25;entryDx=0;entryDy=0;fillColor=#d5e8d4;strokeColor=#82b366;strokeWidth=2;" edge="1" parent="1" source="4WRyh4Nc3NUzpBGTfUNt-15" target="4WRyh4Nc3NUzpBGTfUNt-38">
          <mxGeometry relative="1" as="geometry" />
        </mxCell>
        <mxCell id="4WRyh4Nc3NUzpBGTfUNt-15" value="&lt;font face=&quot;monaco&quot;&gt;bucket[1]&lt;/font&gt;" style="rounded=1;whiteSpace=wrap;html=1;strokeWidth=2;fillColor=#f8cecc;strokeColor=#b85450;comic=1;" vertex="1" parent="1">
          <mxGeometry x="400" y="591" width="120" height="40" as="geometry" />
        </mxCell>
        <mxCell id="4WRyh4Nc3NUzpBGTfUNt-16" value="&lt;font face=&quot;Monaco&quot;&gt;size = 2&lt;/font&gt;" style="text;html=1;align=center;verticalAlign=middle;resizable=0;points=[];autosize=1;strokeColor=none;fillColor=none;fontSize=12;fontFamily=Helvetica;fontColor=default;" vertex="1" parent="1">
          <mxGeometry x="450" y="631" width="80" height="30" as="geometry" />
        </mxCell>
        <mxCell id="4WRyh4Nc3NUzpBGTfUNt-18" value="&lt;font face=&quot;monaco&quot;&gt;tophash[...]&lt;/font&gt;" style="rounded=1;whiteSpace=wrap;html=1;strokeWidth=2;fillColor=#fff2cc;strokeColor=#d6b656;comic=1;" vertex="1" parent="1">
          <mxGeometry x="620" y="230" width="120" height="40" as="geometry" />
        </mxCell>
        <mxCell id="4WRyh4Nc3NUzpBGTfUNt-19" value="&lt;font face=&quot;monaco&quot;&gt;key0&lt;/font&gt;" style="rounded=1;whiteSpace=wrap;html=1;strokeWidth=2;fillColor=#fff2cc;strokeColor=#d6b656;comic=1;" vertex="1" parent="1">
          <mxGeometry x="620" y="270" width="120" height="30" as="geometry" />
        </mxCell>
        <mxCell id="4WRyh4Nc3NUzpBGTfUNt-20" value="&lt;font face=&quot;monaco&quot;&gt;key1&lt;/font&gt;" style="rounded=1;whiteSpace=wrap;html=1;strokeWidth=2;fillColor=#fff2cc;strokeColor=#d6b656;comic=1;" vertex="1" parent="1">
          <mxGeometry x="620" y="302" width="120" height="30" as="geometry" />
        </mxCell>
        <mxCell id="4WRyh4Nc3NUzpBGTfUNt-21" value="&lt;font face=&quot;monaco&quot;&gt;key2&lt;/font&gt;" style="rounded=1;whiteSpace=wrap;html=1;strokeWidth=2;fillColor=#fff2cc;strokeColor=#d6b656;comic=1;" vertex="1" parent="1">
          <mxGeometry x="620" y="330" width="120" height="30" as="geometry" />
        </mxCell>
        <mxCell id="4WRyh4Nc3NUzpBGTfUNt-22" value="&lt;font face=&quot;monaco&quot;&gt;key3&lt;/font&gt;" style="rounded=1;whiteSpace=wrap;html=1;strokeWidth=2;fillColor=#fff2cc;strokeColor=#d6b656;comic=1;" vertex="1" parent="1">
          <mxGeometry x="620" y="360" width="120" height="30" as="geometry" />
        </mxCell>
        <mxCell id="4WRyh4Nc3NUzpBGTfUNt-23" value="&lt;font face=&quot;monaco&quot;&gt;key4&lt;/font&gt;" style="rounded=1;whiteSpace=wrap;html=1;strokeWidth=2;fillColor=#fff2cc;strokeColor=#d6b656;comic=1;" vertex="1" parent="1">
          <mxGeometry x="620" y="390" width="120" height="30" as="geometry" />
        </mxCell>
        <mxCell id="4WRyh4Nc3NUzpBGTfUNt-24" value="&lt;font face=&quot;monaco&quot;&gt;key5&lt;/font&gt;" style="rounded=1;whiteSpace=wrap;html=1;strokeWidth=2;fillColor=#fff2cc;strokeColor=#d6b656;comic=1;" vertex="1" parent="1">
          <mxGeometry x="620" y="420" width="120" height="30" as="geometry" />
        </mxCell>
        <mxCell id="4WRyh4Nc3NUzpBGTfUNt-25" value="&lt;font face=&quot;monaco&quot;&gt;key6&lt;/font&gt;" style="rounded=1;whiteSpace=wrap;html=1;strokeWidth=2;fillColor=#fff2cc;strokeColor=#d6b656;comic=1;" vertex="1" parent="1">
          <mxGeometry x="620" y="450" width="120" height="30" as="geometry" />
        </mxCell>
        <mxCell id="4WRyh4Nc3NUzpBGTfUNt-26" value="&lt;font face=&quot;monaco&quot;&gt;nil&lt;/font&gt;" style="rounded=1;whiteSpace=wrap;html=1;strokeWidth=2;fillColor=#fff2cc;strokeColor=#d6b656;comic=1;" vertex="1" parent="1">
          <mxGeometry x="620" y="480" width="120" height="30" as="geometry" />
        </mxCell>
        <mxCell id="4WRyh4Nc3NUzpBGTfUNt-27" value="&lt;font face=&quot;monaco&quot;&gt;*bucket&lt;/font&gt;" style="rounded=1;whiteSpace=wrap;html=1;strokeWidth=2;fillColor=#d5e8d4;strokeColor=#82b366;comic=1;" vertex="1" parent="1">
          <mxGeometry x="620" y="540" width="120" height="30" as="geometry" />
        </mxCell>
        <mxCell id="4WRyh4Nc3NUzpBGTfUNt-29" value="" style="verticalLabelPosition=bottom;verticalAlign=top;html=1;shape=mxgraph.basic.x;fillColor=#f8cecc;strokeColor=#b85450;" vertex="1" parent="1">
          <mxGeometry x="330" y="360" width="40" height="20" as="geometry" />
        </mxCell>
        <mxCell id="4WRyh4Nc3NUzpBGTfUNt-36" value="&lt;font color=&quot;#00cc66&quot; face=&quot;monaco&quot;&gt;&lt;b&gt;grow&lt;/b&gt;&lt;/font&gt;" style="text;html=1;align=center;verticalAlign=middle;resizable=0;points=[];autosize=1;strokeColor=none;fillColor=none;" vertex="1" parent="1">
          <mxGeometry x="445" y="458" width="50" height="30" as="geometry" />
        </mxCell>
        <mxCell id="4WRyh4Nc3NUzpBGTfUNt-38" value="&lt;font face=&quot;monaco&quot;&gt;tophash[...]&lt;/font&gt;" style="rounded=1;whiteSpace=wrap;html=1;strokeWidth=2;fillColor=#fff2cc;strokeColor=#d6b656;comic=1;" vertex="1" parent="1">
          <mxGeometry x="620" y="601" width="120" height="40" as="geometry" />
        </mxCell>
        <mxCell id="4WRyh4Nc3NUzpBGTfUNt-39" value="&lt;font face=&quot;monaco&quot;&gt;key0(new)&lt;/font&gt;" style="rounded=1;whiteSpace=wrap;html=1;strokeWidth=2;fillColor=#fff2cc;strokeColor=#d6b656;comic=1;" vertex="1" parent="1">
          <mxGeometry x="620" y="641" width="120" height="30" as="geometry" />
        </mxCell>
        <mxCell id="4WRyh4Nc3NUzpBGTfUNt-40" value="&lt;font face=&quot;monaco&quot;&gt;nil&lt;/font&gt;" style="rounded=1;whiteSpace=wrap;html=1;strokeWidth=2;fillColor=#fff2cc;strokeColor=#d6b656;comic=1;" vertex="1" parent="1">
          <mxGeometry x="620" y="672" width="120" height="30" as="geometry" />
        </mxCell>
        <mxCell id="4WRyh4Nc3NUzpBGTfUNt-41" value="&lt;font&gt;nil&lt;/font&gt;" style="rounded=1;whiteSpace=wrap;html=1;strokeWidth=2;fillColor=#fff2cc;strokeColor=#d6b656;comic=1;fontFamily=monaco;" vertex="1" parent="1">
          <mxGeometry x="620" y="702" width="120" height="30" as="geometry" />
        </mxCell>
        <mxCell id="4WRyh4Nc3NUzpBGTfUNt-42" value="&lt;font&gt;nil&lt;/font&gt;" style="rounded=1;whiteSpace=wrap;html=1;strokeWidth=2;fillColor=#fff2cc;strokeColor=#d6b656;comic=1;fontFamily=monaco;" vertex="1" parent="1">
          <mxGeometry x="620" y="732" width="120" height="30" as="geometry" />
        </mxCell>
        <mxCell id="4WRyh4Nc3NUzpBGTfUNt-43" value="&lt;font&gt;nil&lt;/font&gt;" style="rounded=1;whiteSpace=wrap;html=1;strokeWidth=2;fillColor=#fff2cc;strokeColor=#d6b656;comic=1;fontFamily=monaco;" vertex="1" parent="1">
          <mxGeometry x="620" y="763" width="120" height="30" as="geometry" />
        </mxCell>
        <mxCell id="4WRyh4Nc3NUzpBGTfUNt-44" value="&lt;font&gt;nil&lt;/font&gt;" style="rounded=1;whiteSpace=wrap;html=1;strokeWidth=2;fillColor=#fff2cc;strokeColor=#d6b656;comic=1;fontFamily=monaco;" vertex="1" parent="1">
          <mxGeometry x="620" y="793" width="120" height="30" as="geometry" />
        </mxCell>
        <mxCell id="4WRyh4Nc3NUzpBGTfUNt-45" value="&lt;font&gt;nil&lt;/font&gt;" style="rounded=1;whiteSpace=wrap;html=1;strokeWidth=2;fillColor=#fff2cc;strokeColor=#d6b656;comic=1;fontFamily=monaco;" vertex="1" parent="1">
          <mxGeometry x="620" y="824" width="120" height="30" as="geometry" />
        </mxCell>
        <mxCell id="4WRyh4Nc3NUzpBGTfUNt-46" value="&lt;font face=&quot;monaco&quot;&gt;nil&lt;/font&gt;" style="rounded=1;whiteSpace=wrap;html=1;strokeWidth=2;fillColor=#fff2cc;strokeColor=#d6b656;comic=1;" vertex="1" parent="1">
          <mxGeometry x="620" y="854" width="120" height="30" as="geometry" />
        </mxCell>
        <mxCell id="4WRyh4Nc3NUzpBGTfUNt-47" value="&lt;font face=&quot;monaco&quot;&gt;*bucket&lt;/font&gt;" style="rounded=1;whiteSpace=wrap;html=1;strokeWidth=2;fillColor=#d5e8d4;strokeColor=#82b366;comic=1;" vertex="1" parent="1">
          <mxGeometry x="620" y="914" width="120" height="30" as="geometry" />
        </mxCell>
        <mxCell id="4WRyh4Nc3NUzpBGTfUNt-49" value="&lt;font color=&quot;#ff0000&quot; face=&quot;Monaco&quot;&gt;搬迁完后释放&lt;/font&gt;" style="text;html=1;align=center;verticalAlign=middle;resizable=0;points=[];autosize=1;strokeColor=none;fillColor=none;fontSize=12;fontFamily=Helvetica;fontColor=default;" vertex="1" parent="1">
          <mxGeometry x="300" y="330" width="100" height="30" as="geometry" />
        </mxCell>
        <mxCell id="4WRyh4Nc3NUzpBGTfUNt-51" value="&lt;font face=&quot;monaco&quot;&gt;count&lt;/font&gt;" style="rounded=1;whiteSpace=wrap;html=1;strokeWidth=2;fillColor=#dae8fc;strokeColor=#6c8ebf;comic=1;" vertex="1" parent="1">
          <mxGeometry x="190" y="1240" width="120" height="40" as="geometry" />
        </mxCell>
        <mxCell id="4WRyh4Nc3NUzpBGTfUNt-52" value="&lt;font face=&quot;monaco&quot;&gt;...&lt;/font&gt;" style="rounded=1;whiteSpace=wrap;html=1;strokeWidth=2;fillColor=#dae8fc;strokeColor=#6c8ebf;comic=1;" vertex="1" parent="1">
          <mxGeometry x="190" y="1280" width="120" height="40" as="geometry" />
        </mxCell>
        <mxCell id="4WRyh4Nc3NUzpBGTfUNt-53" value="&lt;font face=&quot;monaco&quot;&gt;B&lt;/font&gt;" style="rounded=1;whiteSpace=wrap;html=1;strokeWidth=2;fillColor=#dae8fc;strokeColor=#6c8ebf;comic=1;" vertex="1" parent="1">
          <mxGeometry x="190" y="1320" width="120" height="40" as="geometry" />
        </mxCell>
        <mxCell id="4WRyh4Nc3NUzpBGTfUNt-79" style="edgeStyle=orthogonalEdgeStyle;rounded=0;orthogonalLoop=1;jettySize=auto;html=1;entryX=0;entryY=0.25;entryDx=0;entryDy=0;" edge="1" parent="1" source="4WRyh4Nc3NUzpBGTfUNt-55" target="4WRyh4Nc3NUzpBGTfUNt-60">
          <mxGeometry relative="1" as="geometry" />
        </mxCell>
        <mxCell id="4WRyh4Nc3NUzpBGTfUNt-55" value="&lt;font face=&quot;monaco&quot;&gt;buckets&lt;/font&gt;" style="rounded=1;whiteSpace=wrap;html=1;strokeWidth=2;fillColor=#f8cecc;strokeColor=#b85450;comic=1;" vertex="1" parent="1">
          <mxGeometry x="190" y="1360" width="120" height="40" as="geometry" />
        </mxCell>
        <mxCell id="4WRyh4Nc3NUzpBGTfUNt-57" value="&lt;font face=&quot;monaco&quot;&gt;oldbuckets&lt;/font&gt;" style="rounded=1;whiteSpace=wrap;html=1;strokeWidth=2;fillColor=#f8cecc;strokeColor=#b85450;comic=1;" vertex="1" parent="1">
          <mxGeometry x="190" y="1400" width="120" height="40" as="geometry" />
        </mxCell>
        <mxCell id="4WRyh4Nc3NUzpBGTfUNt-58" value="&lt;font face=&quot;monaco&quot;&gt;...&lt;/font&gt;" style="rounded=1;whiteSpace=wrap;html=1;strokeWidth=2;fillColor=#dae8fc;strokeColor=#6c8ebf;comic=1;" vertex="1" parent="1">
          <mxGeometry x="190" y="1441" width="120" height="40" as="geometry" />
        </mxCell>
        <mxCell id="4WRyh4Nc3NUzpBGTfUNt-59" value="&lt;font face=&quot;Monaco&quot;&gt;hmap&lt;/font&gt;" style="text;html=1;align=center;verticalAlign=middle;resizable=0;points=[];autosize=1;strokeColor=none;fillColor=none;fontSize=12;fontFamily=Helvetica;fontColor=default;" vertex="1" parent="1">
          <mxGeometry x="220" y="1200" width="50" height="30" as="geometry" />
        </mxCell>
        <mxCell id="4WRyh4Nc3NUzpBGTfUNt-93" style="edgeStyle=orthogonalEdgeStyle;rounded=0;orthogonalLoop=1;jettySize=auto;html=1;entryX=0;entryY=0.25;entryDx=0;entryDy=0;" edge="1" parent="1" source="4WRyh4Nc3NUzpBGTfUNt-60" target="4WRyh4Nc3NUzpBGTfUNt-65">
          <mxGeometry relative="1" as="geometry" />
        </mxCell>
        <mxCell id="4WRyh4Nc3NUzpBGTfUNt-60" value="&lt;font face=&quot;monaco&quot;&gt;bucket[0]&lt;/font&gt;" style="rounded=1;whiteSpace=wrap;html=1;strokeWidth=2;fillColor=#f8cecc;strokeColor=#b85450;comic=1;" vertex="1" parent="1">
          <mxGeometry x="400" y="1240" width="120" height="40" as="geometry" />
        </mxCell>
        <mxCell id="4WRyh4Nc3NUzpBGTfUNt-61" value="&lt;font face=&quot;Monaco&quot;&gt;[]bmap&lt;/font&gt;" style="text;html=1;align=center;verticalAlign=middle;resizable=0;points=[];autosize=1;strokeColor=none;fillColor=none;fontSize=12;fontFamily=Helvetica;fontColor=default;" vertex="1" parent="1">
          <mxGeometry x="425" y="1200" width="70" height="30" as="geometry" />
        </mxCell>
        <mxCell id="4WRyh4Nc3NUzpBGTfUNt-65" value="&lt;font face=&quot;monaco&quot;&gt;tophash[...]&lt;/font&gt;" style="rounded=1;whiteSpace=wrap;html=1;strokeWidth=2;fillColor=#fff2cc;strokeColor=#d6b656;comic=1;" vertex="1" parent="1">
          <mxGeometry x="620" y="1110" width="120" height="40" as="geometry" />
        </mxCell>
        <mxCell id="4WRyh4Nc3NUzpBGTfUNt-66" value="&lt;font face=&quot;monaco&quot;&gt;key0&lt;/font&gt;" style="rounded=1;whiteSpace=wrap;html=1;strokeWidth=2;fillColor=#fff2cc;strokeColor=#d6b656;comic=1;" vertex="1" parent="1">
          <mxGeometry x="620" y="1150" width="120" height="30" as="geometry" />
        </mxCell>
        <mxCell id="4WRyh4Nc3NUzpBGTfUNt-80" value="&lt;font face=&quot;monaco&quot;&gt;...&lt;/font&gt;" style="rounded=1;whiteSpace=wrap;html=1;strokeWidth=2;fillColor=#f8cecc;strokeColor=#b85450;comic=1;" vertex="1" parent="1">
          <mxGeometry x="400" y="1280" width="120" height="40" as="geometry" />
        </mxCell>
        <mxCell id="4WRyh4Nc3NUzpBGTfUNt-81" value="&lt;font face=&quot;monaco&quot;&gt;bucket[n]&lt;/font&gt;" style="rounded=1;whiteSpace=wrap;html=1;strokeWidth=2;fillColor=#f8cecc;strokeColor=#b85450;comic=1;" vertex="1" parent="1">
          <mxGeometry x="400" y="1320" width="120" height="40" as="geometry" />
        </mxCell>
        <mxCell id="4WRyh4Nc3NUzpBGTfUNt-82" value="&lt;font face=&quot;monaco&quot;&gt;nil&lt;/font&gt;" style="rounded=1;whiteSpace=wrap;html=1;strokeWidth=2;fillColor=#fff2cc;strokeColor=#d6b656;comic=1;" vertex="1" parent="1">
          <mxGeometry x="620" y="1180" width="120" height="30" as="geometry" />
        </mxCell>
        <mxCell id="4WRyh4Nc3NUzpBGTfUNt-83" value="&lt;font&gt;nil&lt;/font&gt;" style="rounded=1;whiteSpace=wrap;html=1;strokeWidth=2;fillColor=#fff2cc;strokeColor=#d6b656;comic=1;fontFamily=monaco;" vertex="1" parent="1">
          <mxGeometry x="620" y="1210" width="120" height="30" as="geometry" />
        </mxCell>
        <mxCell id="4WRyh4Nc3NUzpBGTfUNt-84" value="&lt;font&gt;nil&lt;/font&gt;" style="rounded=1;whiteSpace=wrap;html=1;strokeWidth=2;fillColor=#fff2cc;strokeColor=#d6b656;comic=1;fontFamily=monaco;" vertex="1" parent="1">
          <mxGeometry x="620" y="1240" width="120" height="30" as="geometry" />
        </mxCell>
        <mxCell id="4WRyh4Nc3NUzpBGTfUNt-85" value="&lt;font&gt;nil&lt;/font&gt;" style="rounded=1;whiteSpace=wrap;html=1;strokeWidth=2;fillColor=#fff2cc;strokeColor=#d6b656;comic=1;fontFamily=monaco;" vertex="1" parent="1">
          <mxGeometry x="620" y="1271" width="120" height="30" as="geometry" />
        </mxCell>
        <mxCell id="4WRyh4Nc3NUzpBGTfUNt-86" value="&lt;font&gt;nil&lt;/font&gt;" style="rounded=1;whiteSpace=wrap;html=1;strokeWidth=2;fillColor=#fff2cc;strokeColor=#d6b656;comic=1;fontFamily=monaco;" vertex="1" parent="1">
          <mxGeometry x="620" y="1301" width="120" height="30" as="geometry" />
        </mxCell>
        <mxCell id="4WRyh4Nc3NUzpBGTfUNt-87" value="&lt;font&gt;nil&lt;/font&gt;" style="rounded=1;whiteSpace=wrap;html=1;strokeWidth=2;fillColor=#fff2cc;strokeColor=#d6b656;comic=1;fontFamily=monaco;" vertex="1" parent="1">
          <mxGeometry x="620" y="1332" width="120" height="30" as="geometry" />
        </mxCell>
        <mxCell id="4WRyh4Nc3NUzpBGTfUNt-88" value="&lt;font face=&quot;monaco&quot;&gt;nil&lt;/font&gt;" style="rounded=1;whiteSpace=wrap;html=1;strokeWidth=2;fillColor=#fff2cc;strokeColor=#d6b656;comic=1;" vertex="1" parent="1">
          <mxGeometry x="620" y="1362" width="120" height="30" as="geometry" />
        </mxCell>
        <mxCell id="4WRyh4Nc3NUzpBGTfUNt-127" style="edgeStyle=orthogonalEdgeStyle;rounded=0;orthogonalLoop=1;jettySize=auto;html=1;entryX=0.5;entryY=0;entryDx=0;entryDy=0;strokeWidth=2;dashed=1;" edge="1" parent="1" source="4WRyh4Nc3NUzpBGTfUNt-89" target="4WRyh4Nc3NUzpBGTfUNt-94">
          <mxGeometry relative="1" as="geometry" />
        </mxCell>
        <mxCell id="4WRyh4Nc3NUzpBGTfUNt-141" style="edgeStyle=orthogonalEdgeStyle;rounded=0;orthogonalLoop=1;jettySize=auto;html=1;entryX=1;entryY=0;entryDx=0;entryDy=0;strokeWidth=2;strokeColor=#00CC66;" edge="1" parent="1" source="4WRyh4Nc3NUzpBGTfUNt-89" target="4WRyh4Nc3NUzpBGTfUNt-116">
          <mxGeometry relative="1" as="geometry">
            <Array as="points">
              <mxPoint x="610" y="1437" />
              <mxPoint x="610" y="1500" />
              <mxPoint x="310" y="1500" />
            </Array>
          </mxGeometry>
        </mxCell>
        <mxCell id="4WRyh4Nc3NUzpBGTfUNt-89" value="&lt;font face=&quot;monaco&quot;&gt;*bucket&lt;/font&gt;" style="rounded=1;whiteSpace=wrap;html=1;strokeWidth=2;fillColor=#d5e8d4;strokeColor=#82b366;comic=1;" vertex="1" parent="1">
          <mxGeometry x="620" y="1422" width="120" height="30" as="geometry" />
        </mxCell>
        <mxCell id="4WRyh4Nc3NUzpBGTfUNt-90" value="&lt;font face=&quot;monaco&quot;&gt;value[...]&lt;/font&gt;" style="rounded=1;whiteSpace=wrap;html=1;strokeWidth=2;fillColor=#ffe6cc;strokeColor=#d79b00;comic=1;" vertex="1" parent="1">
          <mxGeometry x="620" y="510" width="120" height="30" as="geometry" />
        </mxCell>
        <mxCell id="4WRyh4Nc3NUzpBGTfUNt-91" value="&lt;font face=&quot;monaco&quot;&gt;value[...]&lt;/font&gt;" style="rounded=1;whiteSpace=wrap;html=1;strokeWidth=2;fillColor=#ffe6cc;strokeColor=#d79b00;comic=1;" vertex="1" parent="1">
          <mxGeometry x="620" y="884" width="120" height="30" as="geometry" />
        </mxCell>
        <mxCell id="4WRyh4Nc3NUzpBGTfUNt-92" value="&lt;font face=&quot;monaco&quot;&gt;value[...]&lt;/font&gt;" style="rounded=1;whiteSpace=wrap;html=1;strokeWidth=2;fillColor=#ffe6cc;strokeColor=#d79b00;comic=1;" vertex="1" parent="1">
          <mxGeometry x="620" y="1392" width="120" height="30" as="geometry" />
        </mxCell>
        <mxCell id="4WRyh4Nc3NUzpBGTfUNt-94" value="&lt;font face=&quot;monaco&quot;&gt;tophash[...]&lt;/font&gt;" style="rounded=1;whiteSpace=wrap;html=1;strokeWidth=2;fillColor=#fff2cc;strokeColor=#d6b656;comic=1;" vertex="1" parent="1">
          <mxGeometry x="620" y="1540" width="120" height="40" as="geometry" />
        </mxCell>
        <mxCell id="4WRyh4Nc3NUzpBGTfUNt-95" value="&lt;font face=&quot;monaco&quot;&gt;nil&lt;/font&gt;" style="rounded=1;whiteSpace=wrap;html=1;strokeWidth=2;fillColor=#fff2cc;strokeColor=#d6b656;comic=1;" vertex="1" parent="1">
          <mxGeometry x="620" y="1580" width="120" height="30" as="geometry" />
        </mxCell>
        <mxCell id="4WRyh4Nc3NUzpBGTfUNt-96" value="&lt;font face=&quot;monaco&quot;&gt;nil&lt;/font&gt;" style="rounded=1;whiteSpace=wrap;html=1;strokeWidth=2;fillColor=#fff2cc;strokeColor=#d6b656;comic=1;" vertex="1" parent="1">
          <mxGeometry x="620" y="1610" width="120" height="30" as="geometry" />
        </mxCell>
        <mxCell id="4WRyh4Nc3NUzpBGTfUNt-97" value="&lt;font&gt;nil&lt;/font&gt;" style="rounded=1;whiteSpace=wrap;html=1;strokeWidth=2;fillColor=#fff2cc;strokeColor=#d6b656;comic=1;fontFamily=monaco;" vertex="1" parent="1">
          <mxGeometry x="620" y="1640" width="120" height="30" as="geometry" />
        </mxCell>
        <mxCell id="4WRyh4Nc3NUzpBGTfUNt-98" value="&lt;font&gt;nil&lt;/font&gt;" style="rounded=1;whiteSpace=wrap;html=1;strokeWidth=2;fillColor=#fff2cc;strokeColor=#d6b656;comic=1;fontFamily=monaco;" vertex="1" parent="1">
          <mxGeometry x="620" y="1670" width="120" height="30" as="geometry" />
        </mxCell>
        <mxCell id="4WRyh4Nc3NUzpBGTfUNt-99" value="&lt;font&gt;nil&lt;/font&gt;" style="rounded=1;whiteSpace=wrap;html=1;strokeWidth=2;fillColor=#fff2cc;strokeColor=#d6b656;comic=1;fontFamily=monaco;" vertex="1" parent="1">
          <mxGeometry x="620" y="1701" width="120" height="30" as="geometry" />
        </mxCell>
        <mxCell id="4WRyh4Nc3NUzpBGTfUNt-100" value="&lt;font&gt;nil&lt;/font&gt;" style="rounded=1;whiteSpace=wrap;html=1;strokeWidth=2;fillColor=#fff2cc;strokeColor=#d6b656;comic=1;fontFamily=monaco;" vertex="1" parent="1">
          <mxGeometry x="620" y="1731" width="120" height="30" as="geometry" />
        </mxCell>
        <mxCell id="4WRyh4Nc3NUzpBGTfUNt-101" value="&lt;font&gt;nil&lt;/font&gt;" style="rounded=1;whiteSpace=wrap;html=1;strokeWidth=2;fillColor=#fff2cc;strokeColor=#d6b656;comic=1;fontFamily=monaco;" vertex="1" parent="1">
          <mxGeometry x="620" y="1762" width="120" height="30" as="geometry" />
        </mxCell>
        <mxCell id="4WRyh4Nc3NUzpBGTfUNt-102" value="&lt;font face=&quot;monaco&quot;&gt;nil&lt;/font&gt;" style="rounded=1;whiteSpace=wrap;html=1;strokeWidth=2;fillColor=#fff2cc;strokeColor=#d6b656;comic=1;" vertex="1" parent="1">
          <mxGeometry x="620" y="1792" width="120" height="30" as="geometry" />
        </mxCell>
        <mxCell id="4WRyh4Nc3NUzpBGTfUNt-133" style="edgeStyle=orthogonalEdgeStyle;rounded=0;orthogonalLoop=1;jettySize=auto;html=1;dashed=1;strokeWidth=2;strokeColor=#666666;" edge="1" parent="1" source="4WRyh4Nc3NUzpBGTfUNt-103">
          <mxGeometry relative="1" as="geometry">
            <mxPoint x="490" y="1620" as="targetPoint" />
            <Array as="points">
              <mxPoint x="530" y="1867" />
              <mxPoint x="530" y="1620" />
            </Array>
          </mxGeometry>
        </mxCell>
        <mxCell id="4WRyh4Nc3NUzpBGTfUNt-103" value="&lt;font face=&quot;monaco&quot;&gt;*bucket&lt;/font&gt;" style="rounded=1;whiteSpace=wrap;html=1;strokeWidth=2;fillColor=#d5e8d4;strokeColor=#82b366;comic=1;" vertex="1" parent="1">
          <mxGeometry x="620" y="1852" width="120" height="30" as="geometry" />
        </mxCell>
        <mxCell id="4WRyh4Nc3NUzpBGTfUNt-104" value="&lt;font face=&quot;monaco&quot;&gt;value[...]&lt;/font&gt;" style="rounded=1;whiteSpace=wrap;html=1;strokeWidth=2;fillColor=#ffe6cc;strokeColor=#d79b00;comic=1;" vertex="1" parent="1">
          <mxGeometry x="620" y="1822" width="120" height="30" as="geometry" />
        </mxCell>
        <mxCell id="4WRyh4Nc3NUzpBGTfUNt-116" value="&lt;font face=&quot;monaco&quot;&gt;tophash[...]&lt;/font&gt;" style="rounded=1;whiteSpace=wrap;html=1;strokeWidth=2;fillColor=#fff2cc;strokeColor=#d6b656;comic=1;" vertex="1" parent="1">
          <mxGeometry x="190" y="1540" width="120" height="40" as="geometry" />
        </mxCell>
        <mxCell id="4WRyh4Nc3NUzpBGTfUNt-117" value="&lt;font face=&quot;monaco&quot;&gt;nil&lt;/font&gt;" style="rounded=1;whiteSpace=wrap;html=1;strokeWidth=2;fillColor=#fff2cc;strokeColor=#d6b656;comic=1;" vertex="1" parent="1">
          <mxGeometry x="190" y="1580" width="120" height="30" as="geometry" />
        </mxCell>
        <mxCell id="4WRyh4Nc3NUzpBGTfUNt-118" value="&lt;font face=&quot;monaco&quot;&gt;nil&lt;/font&gt;" style="rounded=1;whiteSpace=wrap;html=1;strokeWidth=2;fillColor=#fff2cc;strokeColor=#d6b656;comic=1;" vertex="1" parent="1">
          <mxGeometry x="190" y="1610" width="120" height="30" as="geometry" />
        </mxCell>
        <mxCell id="4WRyh4Nc3NUzpBGTfUNt-119" value="&lt;font&gt;nil&lt;/font&gt;" style="rounded=1;whiteSpace=wrap;html=1;strokeWidth=2;fillColor=#fff2cc;strokeColor=#d6b656;comic=1;fontFamily=monaco;" vertex="1" parent="1">
          <mxGeometry x="190" y="1640" width="120" height="30" as="geometry" />
        </mxCell>
        <mxCell id="4WRyh4Nc3NUzpBGTfUNt-120" value="&lt;font&gt;nil&lt;/font&gt;" style="rounded=1;whiteSpace=wrap;html=1;strokeWidth=2;fillColor=#fff2cc;strokeColor=#d6b656;comic=1;fontFamily=monaco;" vertex="1" parent="1">
          <mxGeometry x="190" y="1670" width="120" height="30" as="geometry" />
        </mxCell>
        <mxCell id="4WRyh4Nc3NUzpBGTfUNt-121" value="&lt;font&gt;nil&lt;/font&gt;" style="rounded=1;whiteSpace=wrap;html=1;strokeWidth=2;fillColor=#fff2cc;strokeColor=#d6b656;comic=1;fontFamily=monaco;" vertex="1" parent="1">
          <mxGeometry x="190" y="1701" width="120" height="30" as="geometry" />
        </mxCell>
        <mxCell id="4WRyh4Nc3NUzpBGTfUNt-122" value="&lt;font&gt;nil&lt;/font&gt;" style="rounded=1;whiteSpace=wrap;html=1;strokeWidth=2;fillColor=#fff2cc;strokeColor=#d6b656;comic=1;fontFamily=monaco;" vertex="1" parent="1">
          <mxGeometry x="190" y="1731" width="120" height="30" as="geometry" />
        </mxCell>
        <mxCell id="4WRyh4Nc3NUzpBGTfUNt-123" value="&lt;b&gt;key[6]&lt;/b&gt;" style="rounded=1;whiteSpace=wrap;html=1;strokeWidth=2;fillColor=#fff2cc;strokeColor=#d6b656;comic=1;fontFamily=monaco;" vertex="1" parent="1">
          <mxGeometry x="190" y="1762" width="120" height="30" as="geometry" />
        </mxCell>
        <mxCell id="4WRyh4Nc3NUzpBGTfUNt-124" value="&lt;font face=&quot;monaco&quot;&gt;nil&lt;/font&gt;" style="rounded=1;whiteSpace=wrap;html=1;strokeWidth=2;fillColor=#fff2cc;strokeColor=#d6b656;comic=1;" vertex="1" parent="1">
          <mxGeometry x="190" y="1792" width="120" height="30" as="geometry" />
        </mxCell>
        <mxCell id="4WRyh4Nc3NUzpBGTfUNt-125" value="&lt;font face=&quot;monaco&quot;&gt;*bucket&lt;/font&gt;" style="rounded=1;whiteSpace=wrap;html=1;strokeWidth=2;fillColor=#d5e8d4;strokeColor=#82b366;comic=1;" vertex="1" parent="1">
          <mxGeometry x="190" y="1852" width="120" height="30" as="geometry" />
        </mxCell>
        <mxCell id="4WRyh4Nc3NUzpBGTfUNt-126" value="&lt;font face=&quot;monaco&quot;&gt;value[...]&lt;/font&gt;" style="rounded=1;whiteSpace=wrap;html=1;strokeWidth=2;fillColor=#ffe6cc;strokeColor=#d79b00;comic=1;" vertex="1" parent="1">
          <mxGeometry x="190" y="1822" width="120" height="30" as="geometry" />
        </mxCell>
        <mxCell id="4WRyh4Nc3NUzpBGTfUNt-139" style="edgeStyle=orthogonalEdgeStyle;rounded=0;orthogonalLoop=1;jettySize=auto;html=1;entryX=1;entryY=0.25;entryDx=0;entryDy=0;dashed=1;strokeWidth=2;strokeColor=#666666;" edge="1" parent="1" target="4WRyh4Nc3NUzpBGTfUNt-116">
          <mxGeometry relative="1" as="geometry">
            <mxPoint x="390" y="1620" as="sourcePoint" />
          </mxGeometry>
        </mxCell>
        <mxCell id="4WRyh4Nc3NUzpBGTfUNt-130" value="" style="shape=curlyBracket;whiteSpace=wrap;html=1;rounded=1;labelPosition=left;verticalLabelPosition=middle;align=right;verticalAlign=middle;strokeWidth=3;strokeColor=#FF0000;" vertex="1" parent="1">
          <mxGeometry x="400" y="1560" width="20" height="120" as="geometry" />
        </mxCell>
        <mxCell id="4WRyh4Nc3NUzpBGTfUNt-131" value="" style="shape=curlyBracket;whiteSpace=wrap;html=1;rounded=1;flipH=1;labelPosition=right;verticalLabelPosition=middle;align=left;verticalAlign=middle;strokeWidth=3;strokeColor=#FF0000;" vertex="1" parent="1">
          <mxGeometry x="460" y="1560" width="20" height="120" as="geometry" />
        </mxCell>
        <mxCell id="4WRyh4Nc3NUzpBGTfUNt-132" value="&lt;font color=&quot;#ff0000&quot; style=&quot;font-size: 20px;&quot; face=&quot;monaco&quot;&gt;...&lt;/font&gt;" style="text;html=1;align=center;verticalAlign=middle;resizable=0;points=[];autosize=1;strokeColor=none;fillColor=none;" vertex="1" parent="1">
          <mxGeometry x="409" y="1600" width="60" height="40" as="geometry" />
        </mxCell>
        <mxCell id="4WRyh4Nc3NUzpBGTfUNt-135" value="" style="verticalLabelPosition=bottom;verticalAlign=top;html=1;shape=mxgraph.basic.x;fillColor=#f8cecc;strokeColor=#b85450;" vertex="1" parent="1">
          <mxGeometry x="330" y="1570" width="40" height="20" as="geometry" />
        </mxCell>
        <mxCell id="4WRyh4Nc3NUzpBGTfUNt-137" value="" style="verticalLabelPosition=bottom;verticalAlign=top;html=1;shape=mxgraph.basic.x;fillColor=#f8cecc;strokeColor=#b85450;" vertex="1" parent="1">
          <mxGeometry x="510" y="1670" width="40" height="20" as="geometry" />
        </mxCell>
        <mxCell id="4WRyh4Nc3NUzpBGTfUNt-142" value="&lt;font size=&quot;1&quot; style=&quot;&quot; face=&quot;Monaco&quot;&gt;&lt;b style=&quot;font-size: 16px;&quot;&gt;bucket数量不变&lt;/b&gt;&lt;/font&gt;" style="text;html=1;align=center;verticalAlign=middle;resizable=0;points=[];autosize=1;strokeColor=none;fillColor=none;fontSize=12;fontFamily=Helvetica;fontColor=default;" vertex="1" parent="1">
          <mxGeometry x="385" y="1370" width="150" height="30" as="geometry" />
        </mxCell>
        <mxCell id="4WRyh4Nc3NUzpBGTfUNt-144" style="rounded=0;orthogonalLoop=1;jettySize=auto;html=1;strokeWidth=3;strokeColor=#FF0000;" edge="1" parent="1" source="4WRyh4Nc3NUzpBGTfUNt-143">
          <mxGeometry relative="1" as="geometry">
            <mxPoint x="450" y="1700" as="targetPoint" />
          </mxGeometry>
        </mxCell>
        <mxCell id="4WRyh4Nc3NUzpBGTfUNt-145" style="rounded=0;orthogonalLoop=1;jettySize=auto;html=1;strokeWidth=3;strokeColor=#FF0000;" edge="1" parent="1" source="4WRyh4Nc3NUzpBGTfUNt-143">
          <mxGeometry relative="1" as="geometry">
            <mxPoint x="610" y="1890" as="targetPoint" />
          </mxGeometry>
        </mxCell>
        <mxCell id="4WRyh4Nc3NUzpBGTfUNt-143" value="&lt;font style=&quot;font-size: 16px;&quot; color=&quot;#ff0000&quot; face=&quot;Monaco&quot;&gt;&lt;b&gt;overflow 的 bucket 数量减少&lt;/b&gt;&lt;/font&gt;" style="text;html=1;align=center;verticalAlign=middle;resizable=0;points=[];autosize=1;strokeColor=none;fillColor=none;fontSize=12;fontFamily=Helvetica;fontColor=default;" vertex="1" parent="1">
          <mxGeometry x="320" y="1920" width="270" height="30" as="geometry" />
        </mxCell>
        <mxCell id="4WRyh4Nc3NUzpBGTfUNt-146" value="&lt;font color=&quot;#00cc66&quot; size=&quot;1&quot; style=&quot;&quot; face=&quot;Monaco&quot;&gt;&lt;b style=&quot;font-size: 16px;&quot;&gt;重新组织后的 overflow&lt;/b&gt;&lt;/font&gt;" style="text;html=1;align=center;verticalAlign=middle;resizable=0;points=[];autosize=1;strokeColor=none;fillColor=none;fontSize=12;fontFamily=Helvetica;fontColor=default;" vertex="1" parent="1">
          <mxGeometry x="330" y="1470" width="210" height="30" as="geometry" />
        </mxCell>
      </root>
    </mxGraphModel>
  </diagram>
</mxfile>
